{"title":"The.Snake.2008.DVDRip.H264.Feel-Free","uid":5806227,"size":993267923,"categoryP":"video","categoryS":"movies","magnet":"?xt=urn:btih:8368313c616d7076c36ff25a11c93b229e4cbfd4&amp;dn=The.Snake.2008.DVDRip.H264.Feel-Free&amp;tr=udp%3A%2F%2Ftracker.openbittorrent.com%3A80&amp;tr=udp%3A%2F%2Fopen.demonii.com%3A1337&amp;tr=udp%3A%2F%2Ftracker.coppersurfer.tk%3A6969&amp;tr=udp%3A%2F%2Fexodus.desync.com%3A6969","seeders":0,"leechers":0,"uploader":"neon","files":-1,"time":1283454382,"description":"2vgl4h35ghhzikwpiyev.jpg\n\nGenre:Comedy\nLanguage:English\n &lt;a href=&quot; http://www.imdb.com/title/tt1331326/&quot; rel=&quot;nofollow&quot; target=&quot;_NEW&quot;&gt; http://www.imdb.com/title/tt1331326/&lt;/a&gt;\nSource:DVD\n &lt;a href=&quot;\nhttp://www.starshare.ro/bitbucket/The.Snake.2008.DVDRip.H264.Feel-Free.mp4_thumbs_%5B2010.09.02_19.49.11%5D.jpg&quot; rel=&quot;nofollow&quot; target=&quot;_NEW&quot;&gt;\nhttp://www.starshare.ro/bitbucket/The.Snake.2008.DVDRip.H264.Feel-Free.mp4_thumbs_%5B2010.09.02_19.49.11%5D.jpg&lt;/a&gt;\n\nGeneral\nComplete name :The.Snake.2008.DVDRip.H264.Feel-Free\nFormat : MPEG-4\nFormat profile : Base Media\nCodec ID : isom\nFile size : 947 MiB\nDuration : 1h 16mn\nOverall bit rate : 1 733 Kbps\nVideo #1\nID : 1\nFormat : AVC\nFormat/Info : Advanced Video Codec\nFormat profile : &lt;a class=&quot;__cf_email__&quot; href=&quot;/cdn-cgi/l/email-protection&quot; data-cfemail=&quot;50123123353c393e35101c657e61&quot;&gt;[email&amp;#160;protected]&lt;/a&gt;&lt;script data-cfhash='f9e31' type=&quot;text/javascript&quot;&gt;\n/* &lt;![CDATA[ */!function(){try{var t=&quot;currentScript&quot;in document?document.currentScript:function(){for(var t=document.getElementsByTagName(&quot;script&quot;),e=t.length;e--;)if(t[e].getAttribute(&quot;data-cfhash&quot;))return t[e]}();if(t&amp;&amp;t.previousSibling){var e,r,n,i,c=t.previousSibling,a=c.getAttribute(&quot;data-cfemail&quot;);if(a){for(e=&quot;&quot;,r=parseInt(a.substr(0,2),16),n=2;a.length-n;n+=2)i=parseInt(a.substr(n,2),16)^r,e+=String.fromCharCode(i);e=document.createTextNode(e),c.parentNode.replaceChild(e,c)}t.parentNode.removeChild(t);}}catch(u){}}()/* ]]&gt; */&lt;/script&gt;\nFormat settings, CABAC : No\nFormat settings, ReFrames : 1 frame\nCodec ID : avc1\nCodec ID/Info : Advanced Video Coding\nDuration : 1h 16mn\nBit rate mode : Variable\nBit rate : 1 563 Kbps\nWidth : 652 pixels\nHeight : 352 pixels\nDisplay aspect ratio : 1.852\nFrame rate mode : Constant\nFrame rate : 29.970 fps\nResolution : 24 bits\nColorimetry : 4:2:0\nScan type : Progressive\nBits/(Pixel*Frame) : 0.227\nStream size : 854 MiB (90%)\nAudio #2\nID : 2\nFormat : AAC\nFormat/Info : Advanced Audio Codec\nFormat version : Version 4\nFormat profile : LC\nFormat settings, SBR : No\nCodec ID : 40\nDuration : 1h 16mn\nBit rate mode : Variable\nBit rate : 165 Kbps\nChannel(s) : 2 channels\nChannel positions : L R\nSampling rate : 48.0 KHz\nResolution : 16 bits\nStream size : 90.4 MiB (10%)\n\nPlot\nKen's an inveterate womanizer who joins an all female body image support group to put the moves on Talia, a young woman with an eating disorder","torrent":{"xt":"urn:btih:8368313c616d7076c36ff25a11c93b229e4cbfd4","amp;dn":"The.Snake.2008.DVDRip.H264.Feel-Free","amp;tr":["udp%3A%2F%2Ftracker.openbittorrent.com%3A80","udp%3A%2F%2Fopen.demonii.com%3A1337","udp%3A%2F%2Ftracker.coppersurfer.tk%3A6969","udp%3A%2F%2Fexodus.desync.com%3A6969"],"infoHash":"8368313c616d7076c36ff25a11c93b229e4cbfd4","infoHashBuffer":{"type":"Buffer","data":[131,104,49,60,97,109,112,118,195,111,242,90,17,201,59,34,158,76,191,212]},"announce":[],"urlList":[]}}